Coordinates
version=1
nRows=13
nColumns=40
inDegrees=yes

Units are S.I. units (second, meters, Newtons, ...)
If the header above contains a line with 'inDegrees', this indicates whether rotational values are in degrees (yes) or radians (no).

endheader
time	pelvis_tilt	pelvis_list	pelvis_rotation	pelvis_tx	pelvis_ty	pelvis_tz	hip_flexion_r	hip_adduction_r	hip_rotation_r	knee_angle_r	knee_angle_r_beta	ankle_angle_r	subtalar_angle_r	mtp_angle_r	hip_flexion_l	hip_adduction_l	hip_rotation_l	knee_angle_l	knee_angle_l_beta	ankle_angle_l	subtalar_angle_l	mtp_angle_l	lumbar_extension	lumbar_bending	lumbar_rotation	arm_flex_r	arm_add_r	arm_rot_r	elbow_flex_r	pro_sup_r	wrist_flex_r	wrist_dev_r	arm_flex_l	arm_add_l	arm_rot_l	elbow_flex_l	pro_sup_l	wrist_flex_l	wrist_dev_l
      0.71600000	     14.20438490	     -3.20375765	     -1.21922849	      0.95604328	      0.92886072	     -0.31600884	    -29.75616201	      3.91382947	     -3.87657733	     22.31648402	      0.38949612	     -3.08061218	      0.00000000	      0.00000000	     17.90735186	     -2.74967186	     -0.18843511	     17.79941288	      0.31065836	    -15.46324526	      0.00000000	      0.00000000	    -29.74632951	      2.11076733	      6.10076929	     12.03170684	    -19.49193651	     14.91899901	     49.28837864	     71.69532240	      0.00000000	      0.00000000	      2.55824672	    -20.81146828	     19.29949922	     45.08342225	     77.96399564	      0.00000000	      0.00000000
      0.72000000	     14.11485901	     -3.08070693	     -1.27802076	      0.96249937	      0.92841528	     -0.31636633	    -29.75440778	      3.69501391	     -3.66288297	     22.76845017	      0.39738442	     -3.69056941	      0.00000000	      0.00000000	     18.07392435	     -2.61536729	     -0.37519430	     18.36385987	      0.32050982	    -16.59497883	      0.00000000	      0.00000000	    -29.58149428	      1.94389124	      6.03460883	     11.88804973	    -19.36245779	     14.80195475	     49.03160574	     71.67272382	      0.00000000	      0.00000000	      2.61579624	    -20.70730814	     19.30959498	     44.63500255	     77.99749268	      0.00000000	      0.00000000
      0.72400000	     14.06338822	     -2.96187597	     -1.27266637	      0.96882240	      0.92805150	     -0.31674693	    -29.75477573	      3.51782894	     -3.36483347	     23.27413055	      0.40621021	     -4.30493955	      0.00000000	      0.00000000	     18.17488530	     -2.43732335	     -0.24481875	     18.83192829	      0.32867915	    -17.35773840	      0.00000000	      0.00000000	    -29.47212290	      1.80085903	      5.94924399	     11.74693972	    -19.22196041	     14.64456802	     48.78249533	     71.64342390	      0.00000000	      0.00000000	      2.60614404	    -20.67792582	     19.32652365	     44.45511758	     78.00345443	      0.00000000	      0.00000000
      0.72800000	     14.02805247	     -2.80574077	     -1.24485833	      0.97503772	      0.92777280	     -0.31705851	    -29.75553643	      3.32900631	     -2.94637882	     23.82049802	      0.41574612	     -4.95596508	      0.00000000	      0.00000000	     18.30132843	     -2.24726820	     -0.12913794	     19.37978191	      0.33824100	    -17.94382076	      0.00000000	      0.00000000	    -29.36383150	      1.60913204	      5.80857898	     11.64083221	    -19.04641166	     14.49555885	     48.46333755	     71.62207902	      0.00000000	      0.00000000	      2.57845902	    -20.68769320	     19.42454314	     44.30974850	     77.96698238	      0.00000000	      0.00000000
      0.73200000	     14.01523480	     -2.67367171	     -1.22061561	      0.98130743	      0.92765078	     -0.31742006	    -29.75232221	      3.15833191	     -2.67564413	     24.35577489	      0.42508846	     -5.70881644	      0.00000000	      0.00000000	     18.44051757	     -2.08046045	      0.03899944	     20.06611003	      0.35021969	    -18.37398657	      0.00000000	      0.00000000	    -29.32358842	      1.44428925	      5.69569511	     11.49596519	    -18.87737689	     14.30652126	     48.19070173	     71.61485577	      0.00000000	      0.00000000	      2.55988308	    -20.72998635	     19.39310006	     44.17386832	     77.97564460	      0.00000000	      0.00000000
      0.73600000	     13.96910022	     -2.56737421	     -1.07893910	      0.98799905	      0.92734984	     -0.31775405	    -29.74679758	      3.06600104	     -2.71559599	     24.82806504	      0.43333148	     -6.72893271	      0.00000000	      0.00000000	     18.73323272	     -1.93500783	      0.11721753	     21.07998960	      0.36791522	    -18.46828140	      0.00000000	      0.00000000	    -29.15495012	      1.35421604	      5.49865205	     11.28314187	    -18.63807346	     14.00728832	     47.84070772	     71.60990769	      0.00000000	      0.00000000	      2.49374208	    -20.75099490	     19.48527204	     44.04305794	     77.86257684	      0.00000000	      0.00000000
      0.74000000	     13.94769744	     -2.39783845	     -0.90843773	      0.99460689	      0.92714136	     -0.31823883	    -29.74363852	      2.92288761	     -2.68755576	     25.33818591	      0.44223477	     -7.68090062	      0.00000000	      0.00000000	     18.91933647	     -1.64452901	      0.46099967	     21.95361978	      0.38316295	    -18.69828766	      0.00000000	      0.00000000	    -29.05660234	      1.21261521	      5.21951370	     11.06036476	    -18.42857525	     13.73997656	     47.62317945	     71.64383167	      0.00000000	      0.00000000	      2.17215884	    -20.93105946	     19.28275187	     44.35109656	     77.96094560	      0.00000000	      0.00000000
      0.74400000	     13.96613440	     -2.20808609	     -0.83388196	      1.00128337	      0.92712972	     -0.31887383	    -29.73885452	      2.69509880	     -2.58994167	     25.90857988	      0.45219002	     -8.67128786	      0.00000000	      0.00000000	     18.99427234	     -1.35511345	      0.71335936	     22.76979307	      0.39740786	    -19.10307766	      0.00000000	      0.00000000	    -28.94767033	      1.05348037	      5.00218676	     10.91068127	    -18.25355597	     13.69125027	     47.23051628	     71.63568205	      0.00000000	      0.00000000	      2.27689486	    -20.78069607	     19.44379468	     43.78271555	     77.93644952	      0.00000000	      0.00000000
      0.74800000	     13.94814926	     -2.00748977	     -0.81080057	      1.00804797	      0.92709961	     -0.31943115	    -29.71883391	      2.47504282	     -2.22814455	     26.44982531	      0.46163654	     -9.46738758	      0.00000000	      0.00000000	     18.97733872	     -1.04465903	      1.07807873	     23.41941314	      0.40874587	    -19.42402060	      0.00000000	      0.00000000	    -28.81786963	      0.84831102	      4.85065480	     10.65920924	    -18.14801856	     13.56462078	     47.01655646	     71.61218587	      0.00000000	      0.00000000	      2.19738085	    -20.81175541	     19.43609938	     43.63526801	     77.95157821	      0.00000000	      0.00000000
      0.75200000	     14.00184975	     -1.81705558	     -0.63992539	      1.01509466	      0.92721926	     -0.32011016	    -29.72858125	      2.24035954	     -2.58635857	     26.98247408	      0.47093301	    -11.01014144	      0.00000000	      0.00000000	     19.01101637	     -0.75714323	      1.17535499	     24.38112437	      0.42553090	    -19.48558735	      0.00000000	      0.00000000	    -28.74650769	      0.70092927	      4.57373768	     10.41674355	    -17.92192965	     13.27871766	     46.61980473	     71.56687630	      0.00000000	      0.00000000	      2.07346687	    -20.82142253	     19.41449319	     43.51194491	     77.90655937	      0.00000000	      0.00000000
      0.75600000	     13.99074749	     -1.58366154	     -0.69683050	      1.02223890	      0.92737471	     -0.32048475	    -29.71092501	      1.94962201	     -2.23005847	     27.50520714	      0.48005643	    -11.94324779	      0.00000000	      0.00000000	     18.90639967	     -0.44306121	      1.48056764	     24.99505274	      0.43624597	    -19.54408987	      0.00000000	      0.00000000	    -28.58911096	      0.44221156	      4.44906367	     10.13444007	    -17.76490427	     13.14894979	     46.37807751	     71.56447496	      0.00000000	      0.00000000	      1.93267456	    -20.80657707	     19.37501708	     43.29663424	     77.90434891	      0.00000000	      0.00000000
      0.76000000	     14.13711211	     -1.40387456	     -0.57166058	      1.02864402	      0.92787359	     -0.32098205	    -29.71421705	      1.76025089	     -2.20100987	     28.13925270	      0.49112261	    -13.32075501	      0.00000000	      0.00000000	     18.74486930	     -0.14193651	      1.82979886	     25.73251877	      0.44911718	    -19.47650873	      0.00000000	      0.00000000	    -28.70867013	      0.27630187	      4.21188840	      9.97671315	    -17.56751823	     12.93124054	     46.06533841	     71.55027973	      0.00000000	      0.00000000	      1.95521619	    -20.81188933	     19.36249290	     43.14735169	     77.86614397	      0.00000000	      0.00000000
      0.76400000	     14.16691835	     -1.19397686	     -0.31953962	      1.03613551	      0.92813110	     -0.32168433	    -29.71688205	      1.52015890	     -2.77599855	     28.56007179	      0.49846729	    -15.31046407	      0.00000000	      0.00000000	     18.65528109	      0.19755793	      2.02431192	     26.52839545	      0.46300785	    -18.79840780	      0.00000000	      0.00000000	    -28.54709615	      0.13909573	      3.85813479	      9.63591991	    -17.34749999	     12.64477169	     45.70625203	     71.55731157	      0.00000000	      0.00000000	      1.75308467	    -20.88341959	     19.38636476	     43.08397445	     77.84435886	      0.00000000	      0.00000000
